<svg width="847" height="847" viewBox="0 0 847 847" fill="none" xmlns="http://www.w3.org/2000/svg">
<path d="M423.3 846.4C189.9 846.4 0 656.6 0 423.2C0 189.8 189.9 0 423.3 0C656.6 0 846.5 189.8 846.5 423.2C846.5 656.6 656.6 846.4 423.3 846.4Z" fill="#CDE8FD"/>
<path d="M423.3 740C248.6 740 106.5 598 106.5 423.2C106.5 248.5 248.6 106.4 423.3 106.4C598 106.4 740.1 248.5 740.1 423.2C740.1 597.9 597.9 740 423.3 740Z" fill="#B9DDFD"/>
<path d="M423.3 660.6C292.3 660.6 185.8 554.1 185.8 423.1C185.8 292.2 292.4 185.6 423.3 185.6C554.2 185.6 660.8 292.1 660.8 423.1C660.8 554.1 554.2 660.6 423.3 660.6Z" fill="#A5D1F4"/>
<path d="M423.3 560.3C347.7 560.3 286.1 498.8 286.1 423.1C286.1 347.5 347.6 285.9 423.3 285.9C498.9 285.9 560.4 347.5 560.4 423.1C560.4 498.8 498.9 560.3 423.3 560.3Z" fill="#063D7E"/>
<path d="M502.1 423.1C502.1 466.6 466.8 501.9 423.3 501.9C379.8 501.9 344.5 466.6 344.5 423.1C344.5 379.6 379.8 344.3 423.3 344.3C466.8 344.4 502.1 379.6 502.1 423.1Z" fill="#F3E9EB"/>
<path d="M459.2 423.2C459.2 443.1 443.1 459.2 423.2 459.2C403.3 459.2 387.2 443.1 387.2 423.2C387.2 403.3 403.3 387.2 423.2 387.2C443.1 387.2 459.2 403.3 459.2 423.2Z" fill="#044084"/>
<path d="M455.8 438.8L787.8 751.2C788.8 752.1 787 755.6 783.9 758.9C780.8 762.2 777.5 764.2 776.5 763.3L444.5 450.9C443.5 450 445.3 446.5 448.4 443.2C451.5 439.9 454.8 437.9 455.8 438.8Z" fill="url(#paint0_linear_292_64)" stroke="#233E96" stroke-width="0.1" stroke-miterlimit="10"/>
<path d="M738.7 728.4L727.5 759L712.4 744.8L705.4 738.1L716.5 707.6L738.7 728.4Z" fill="#033F82"/>
<path d="M752.301 713.8L781.801 700.6L766.701 686.4L759.701 679.8L730.101 693L752.301 713.8Z" fill="#033F82"/>
<path d="M766 754.1L754.9 784.7L739.7 770.4L732.7 763.8L743.8 733.3L766 754.1Z" fill="#033F82"/>
<path d="M779.6 739.5L809.1 726.3L794 712.1L787 705.5L757.4 718.7L779.6 739.5Z" fill="#033F82"/>
<path d="M445 483L427.3 432.3C425.9 428.2 432.1 421.5 436.2 422.7L487.7 437.1C492.1 438.3 488.5 446.7 482.8 448.3L466 453C463 453.9 459.9 457.1 459.3 460.2L455.7 477.4C454.5 483.1 446.5 487.4 445 483Z" fill="url(#paint1_linear_292_64)" stroke="#233E96" stroke-width="0.1" stroke-miterlimit="10"/>
<defs>
<linearGradient id="paint0_linear_292_64" x1="609.99" y1="607.597" x2="622.292" y2="594.434" gradientUnits="userSpaceOnUse">
<stop offset="0.0446927" stop-color="#B49DB8"/>
<stop offset="1" stop-color="#D4CEE8"/>
</linearGradient>
<linearGradient id="paint1_linear_292_64" x1="433.935" y1="458.889" x2="454.678" y2="444.22" gradientUnits="userSpaceOnUse">
<stop offset="0.0201356" stop-color="#B49DB8"/>
<stop offset="0.3743" stop-color="#D4CEE8"/>
</linearGradient>
</defs>
</svg>
